HIERARCHY
ROOT root
{
	OFFSET	0	13.1	24.9
	CHANNELS 6  Xposition Yposition Zposition Xrotation Yrotation Zrotation
	JOINT spine_1
	{
		OFFSET	0	9.99999	0
		CHANNELS 3  Xrotation Yrotation Zrotation
		JOINT spine_2
		{
			OFFSET	0	112	-10
			CHANNELS 3  Xrotation Yrotation Zrotation
			JOINT spine_3
			{
				OFFSET	0	206.5	19.3
				CHANNELS 3  Xrotation Yrotation Zrotation
				JOINT spine_4
				{
					OFFSET	0	110.4	14.6
					CHANNELS 3  Xrotation Yrotation Zrotation
					JOINT neck_1
					{
						OFFSET	0	71.8	-50.3
						CHANNELS 3  Xrotation Yrotation Zrotation
						JOINT neck_2
						{
							OFFSET	0	86.2	-25.8
							CHANNELS 3  Xrotation Yrotation Zrotation
							JOINT head_ee
							{
								OFFSET	0	179.8	-8.7
								CHANNELS 3  Xrotation Yrotation Zrotation
								End Site
								{
									OFFSET	1	0	0
								}
							}
						}
					}
					JOINT left_clavicle
					{
						OFFSET	-43.2	22.4	-70.8
						CHANNELS 3  Xrotation Yrotation Zrotation
						JOINT left_shoulder
						{
							OFFSET	-93.9	-5.79999	48.7
							CHANNELS 3  Xrotation Yrotation Zrotation
							JOINT left_elbow
							{
								OFFSET	-291.4	-30.8	15.2
								CHANNELS 3  Xrotation Yrotation Zrotation
								JOINT left_lowarm_twist
								{
									OFFSET	-110.7	-3.89999	13.6
									CHANNELS 3  Xrotation Yrotation Zrotation
									JOINT left_hand
									{
										OFFSET	-110.7	-3.89999	13.6
										CHANNELS 3  Xrotation Yrotation Zrotation
										JOINT left_ee
										{
											OFFSET	-80.8	-5.10001	12.1
											CHANNELS 3  Xrotation Yrotation Zrotation
											End Site
											{
												OFFSET	1	0	0
											}
										}
									}
								}
							}
						}
					}
					JOINT right_clavicle
					{
						OFFSET	43.2	22.4	-70.8
						CHANNELS 3  Xrotation Yrotation Zrotation
						JOINT right_shoulder
						{
							OFFSET	93.9	-5.79999	48.7
							CHANNELS 3  Xrotation Yrotation Zrotation
							JOINT right_elbow
							{
								OFFSET	291.4	-30.8	15.2
								CHANNELS 3  Xrotation Yrotation Zrotation
								JOINT right_lowarm_twist
								{
									OFFSET	110.7	-3.89999	13.6
									CHANNELS 3  Xrotation Yrotation Zrotation
									JOINT right_hand
									{
										OFFSET	110.7	-3.89999	13.6
										CHANNELS 3  Xrotation Yrotation Zrotation
										JOINT right_ee
										{
											OFFSET	80.8	-5.10001	12.1
											CHANNELS 3  Xrotation Yrotation Zrotation
											End Site
											{
												OFFSET	1	0	0
											}
										}
									}
								}
							}
						}
					}
				}
			}
		}
	}
	JOINT left_hip
	{
		OFFSET	-82.8	-127.5	0.300001
		CHANNELS 3  Xrotation Yrotation Zrotation
		JOINT left_knee
		{
			OFFSET	-28.2	-396.7	2.2
			CHANNELS 3  Xrotation Yrotation Zrotation
			JOINT left_ankle
			{
				OFFSET	-11.7	-411.3	35.4
				CHANNELS 3  Xrotation Yrotation Zrotation
				JOINT left_toes
				{
					OFFSET	0	-60	-88.6
					CHANNELS 3  Xrotation Yrotation Zrotation
					JOINT left_foot_ee
					{
						OFFSET	-22.5	-16.5	-42.2
						CHANNELS 3  Xrotation Yrotation Zrotation
						End Site
						{
							OFFSET	1	0	0
						}
					}
				}
			}
		}
	}
	JOINT right_hip
	{
		OFFSET	82.8	-127.5	0.300001
		CHANNELS 3  Xrotation Yrotation Zrotation
		JOINT right_knee
		{
			OFFSET	28.2	-396.7	2.2
			CHANNELS 3  Xrotation Yrotation Zrotation
			JOINT right_ankle
			{
				OFFSET	11.7	-411.3	35.4
				CHANNELS 3  Xrotation Yrotation Zrotation
				JOINT right_toes
				{
					OFFSET	0	-60	-88.6
					CHANNELS 3  Xrotation Yrotation Zrotation
					JOINT right_foot_ee
					{
						OFFSET	22.5	-16.5	-42.2
						CHANNELS 3  Xrotation Yrotation Zrotation
						End Site
						{
							OFFSET	1	0	0
						}
					}
				}
			}
		}
	}
}
MOTION
Frames: 16
Frame Time: 0.02
3093.47 747.31 -627.146 161.413 -63.758 167.61 -4.13504 -0.335704 -2.4753 -4.13165 -0.177564 -2.49163 -4.1185 0.527075 -2.44174 -4.1268 0.134958 -2.4943 -6.2633 12.5512 5.6784 -6.16783 19.1094 8.10024 -0.0 0.0 -0.0 10.0204 25.1111 16.5519 0.15991 -16.3154 63.2575 3.95133 -62.9202 2.41819 -60.9224 -5.39769 5.12897 -0.168661 -6.68762 -3.97814 -0.0 0.0 -0.0 7.08432 22.1981 -12.7767 -16.2641 8.09045 -59.9846 0.656032 18.0032 -0.103925 80.7673 3.9273 8.65243 -5.75961 -29.2925 19.8979 0.0 0.0 0.0 -2.83177 36.7805 -5.37088 -0.0935582 0.0038411 0.0138436 24.6194 2.22994 -3.29643 -23.432 0.0 0.0 -0.0 0.0 -0.0 9.38735 7.44649 -8.43267 -2.65108 -0.10004 -0.394519 -2.43707 22.4096 -0.418007 -35.9141 0.0 0.0 0.0 0.0 0.0 
3103.44 745.48 -624.124 161.989 -64.2499 167.969 -4.07014 -0.353255 -2.45983 -4.0668 -0.196063 -2.47731 -4.05297 0.5025 -2.43375 -4.06122 0.111953 -2.48253 -4.83138 12.9436 6.46696 -4.66758 18.9442 8.77313 -0.0 0.0 -0.0 9.80406 24.9676 16.2661 -0.822438 -16.3036 63.065 3.94297 -62.8711 2.41075 -63.4763 -5.71797 5.19618 0.484853 -8.33682 -0.26577 -0.0 0.0 -0.0 7.29637 22.1478 -13.2458 -17.2268 7.82059 -59.9158 0.683639 18.709 -0.112619 81.6647 4.03182 8.70081 -5.88276 -29.1791 20.7076 0.0 0.0 0.0 -3.19055 39.8407 -5.35294 1.40371 -0.0603432 -0.206944 27.1824 1.44228 -3.59306 -23.6467 0.0 0.0 -0.0 0.0 -0.0 8.71032 7.7466 -8.04131 -2.90993 -0.108827 -0.433274 -0.536006 22.3165 -0.0913908 -33.7469 0.0 0.0 0.0 0.0 0.0 
3108.85 749.011 -619.377 162.227 -65.5789 167.938 -4.09697 -0.321606 -2.27689 -4.0941 -0.176109 -2.29273 -4.08246 0.471326 -2.25068 -4.08951 0.110055 -2.29685 -3.88177 12.8982 6.26904 -3.69669 18.7984 8.44935 -0.0 0.0 -0.0 10.0527 25.2698 16.5672 -0.772957 -15.8528 62.9713 3.92682 -62.7757 2.39639 -65.0051 -5.91096 5.22954 0.860696 -9.89859 1.60482 -0.0 0.0 -0.0 7.72553 22.8124 -14.1291 -17.8828 7.7785 -60.0487 0.704168 19.23 -0.119292 82.2916 4.10526 8.73363 -5.96895 -29.1176 21.264 0.0 0.0 0.0 -3.02649 41.4873 -5.35454 1.382 -0.0593715 -0.203755 30.6728 0.307759 -3.97951 -23.523 0.0 0.0 -0.0 0.0 -0.0 7.55985 8.14456 -7.30203 -1.67464 -0.0653219 -0.248689 1.54058 22.6151 0.261921 -31.9464 0.0 0.0 0.0 0.0 0.0 
3118.01 749.246 -609.549 162.378 -65.9248 167.548 -4.10025 -0.327906 -2.17654 -4.09764 -0.188777 -2.19298 -4.08616 0.431408 -2.15841 -4.09265 0.0851991 -2.19944 -3.28002 13.0051 5.97324 -3.08143 19.0886 8.09033 -0.0 0.0 -0.0 9.90986 25.1086 16.3923 -2.29807 -16.2474 62.1813 3.97598 -63.0642 2.44016 -66.2513 -6.06884 5.25289 1.14099 -10.3825 3.29018 -0.0 0.0 -0.0 7.86437 22.8635 -14.43 -18.0413 7.67533 -61.1187 0.722777 19.6995 -0.125494 82.7723 4.16182 8.75826 -5.98666 -29.2101 21.2908 0.0 0.0 0.0 -2.93377 43.0834 -5.63237 1.59134 -0.0687935 -0.234494 29.4586 0.0200987 -3.85213 -23.8361 0.0 0.0 -0.0 0.0 -0.0 7.22724 8.33611 -7.02517 -1.90505 -0.0737384 -0.283048 2.31494 22.414 0.391816 -30.8324 0.0 0.0 0.0 0.0 0.0 
3125.1 749.912 -602.967 162.352 -66.608 167.815 -4.083 -0.329289 -2.10587 -4.08055 -0.194651 -2.12254 -4.06935 0.405457 -2.09254 -4.07546 0.0699693 -2.1303 -2.40011 12.7576 5.39493 -2.19183 18.8957 7.35526 -0.0 0.0 -0.0 9.84206 23.9549 16.5121 -2.65601 -16.2172 62.318 3.66113 -61.1125 2.16189 -67.0428 -6.16933 5.26593 1.39261 -10.983 4.73186 -0.0 0.0 -0.0 7.75442 21.4758 -14.3092 -18.0544 8.14381 -61.5186 0.820005 22.1072 -0.160192 83.0634 4.19617 8.77293 -5.96029 -29.0454 21.2733 0.0 0.0 0.0 -1.47358 43.3856 -7.87317 3.5716 -0.16347 -0.523544 31.5627 0.751125 -4.06955 -23.9646 0.0 0.0 -0.0 0.0 -0.0 6.2393 8.72783 -7.32558 -1.053 -0.0419234 -0.156156 3.76705 23.3095 0.640629 -29.8014 0.0 0.0 0.0 0.0 0.0 
3132.56 749.995 -595.276 161.875 -66.9635 167.355 -3.97639 -0.320343 -2.10471 -3.97394 -0.185797 -2.12082 -3.96317 0.409611 -2.08918 -3.96925 0.0746022 -2.12763 -1.72662 12.9634 5.71659 -1.49241 18.865 7.64242 -0.0 0.0 -0.0 9.33397 23.229 15.8844 -3.64547 -16.7298 61.985 3.41297 -59.3825 1.94642 -67.3736 -6.21138 5.27096 1.63813 -11.6313 6.11151 -0.0 0.0 -0.0 7.92456 21.5155 -14.6801 -18.048 8.93314 -61.8622 0.844738 22.7071 -0.169619 83.4292 4.23944 8.79113 -5.93682 -29.2096 20.9987 0.0 0.0 0.0 -1.08656 44.0759 -8.51195 5.85262 -0.28486 -0.852294 32.7775 2.46816 -4.18478 -24.1195 0.0 0.0 -0.0 0.0 -0.0 5.81758 8.61292 -7.44549 -2.07835 -0.0799782 -0.308912 4.60062 24.2831 0.7885 -27.9006 0.0 0.0 0.0 0.0 0.0 
3138.7 749.654 -588.651 162.436 -66.3642 168.445 -3.94486 -0.265234 -2.10703 -3.9424 -0.130652 -2.11963 -3.9338 0.461237 -2.07298 -3.93977 0.128137 -2.11979 -0.00325395 12.6002 4.54999 0.256969 18.7763 6.18253 -0.0 0.0 -0.0 9.21435 23.4225 15.6747 -4.56498 -17.4699 61.4248 3.19371 -57.691 1.75938 -68.4694 -6.35085 5.2859 1.61307 -7.91331 7.55292 -0.0 0.0 -0.0 7.95388 21.1705 -14.7733 -17.8514 9.96991 -61.6872 0.892716 23.8559 -0.188583 83.5515 4.25393 8.79716 -5.78098 -28.7936 20.4278 0.0 0.0 0.0 0.583069 44.3945 -10.3938 6.09443 -0.298495 -0.886861 30.5777 5.76432 -3.94956 -24.6894 0.0 0.0 -0.0 0.0 -0.0 4.97547 8.8296 -7.39843 -3.96772 -0.142907 -0.592032 8.59286 27.9208 1.51449 -25.387 0.0 0.0 0.0 0.0 0.0 
3145.81 749.152 -584.557 162.084 -66.4875 167.947 -3.95787 -0.219235 -2.02457 -3.95559 -0.0899887 -2.03442 -3.94899 0.477252 -1.97971 -3.95442 0.158672 -2.03022 -0.0475435 12.5646 4.6334 0.209399 18.6535 6.27334 -0.0 0.0 -0.0 9.19958 22.9556 15.7284 -5.34002 -17.6333 61.6992 2.94346 -55.5458 1.55038 -68.907 -6.40661 5.29111 1.69994 -7.71412 8.23014 -0.0 0.0 -0.0 7.86081 20.803 -14.5988 -17.4133 10.3526 -62.1644 0.947912 25.1528 -0.211478 83.8493 4.28928 8.8117 -5.73575 -29.083 19.9291 0.0 0.0 0.0 1.04821 44.7234 -10.4685 5.88883 -0.286892 -0.857475 31.2889 8.33221 -4.02761 -24.5037 0.0 0.0 -0.0 0.0 -0.0 4.45306 8.94604 -7.33555 -5.05522 -0.17488 -0.755866 10.852 28.0873 1.89823 -23.5403 0.0 0.0 0.0 0.0 0.0 
3154.33 746.786 -581.179 161.419 -66.2174 167.308 -3.98873 -0.243432 -2.05346 -3.9864 -0.112301 -2.06478 -3.97878 0.465268 -2.01483 -3.98442 0.141296 -2.063 1.3731 12.2041 3.16913 1.66683 18.9314 4.50537 -0.0 0.0 -0.0 9.17846 23.0359 15.6839 -5.99145 -17.9238 61.6894 2.79278 -54.1296 1.42718 -69.1675 -6.43983 5.29401 1.74937 -6.91738 8.90773 -0.0 0.0 -0.0 7.693 20.3032 -14.2704 -16.8292 10.7323 -62.0558 1.00887 26.5537 -0.238062 83.9966 4.30678 8.81882 -5.54842 -28.8997 18.9894 0.0 0.0 0.0 1.95411 45.2313 -11.517 4.57103 -0.215041 -0.668167 32.8546 11.1682 -4.20364 -24.1817 0.0 0.0 -0.0 0.0 -0.0 3.83339 8.96094 -7.29261 -6.17026 -0.204426 -0.924432 11.4041 28.6039 2.00297 -22.4194 0.0 0.0 0.0 0.0 0.0 
3170.8 745.838 -575.688 160.297 -65.5317 165.887 -4.00924 -0.226373 -1.95168 -4.00713 -0.101748 -1.96213 -4.00042 0.447621 -1.91311 -4.0055 0.139924 -1.95978 2.04577 11.4259 1.57426 2.35831 18.7671 2.61779 -0.0 0.0 -0.0 8.38242 22.2758 14.6053 -7.99754 -17.9201 62.6762 2.5515 -51.6412 1.23473 -69.3827 -6.46727 5.29629 1.72745 -5.46435 9.37313 -0.0 0.0 -0.0 7.33996 18.7007 -13.6208 -16.9361 12.0838 -62.169 1.07266 27.9837 -0.267289 83.5588 4.2548 8.79752 -5.3286 -28.8384 17.7717 0.0 0.0 0.0 3.17883 45.4771 -12.7363 0.0294533 -0.00121379 -0.00435689 34.1588 15.0702 -4.37435 -23.8129 0.0 0.0 -0.0 0.0 -0.0 2.70867 8.58202 -7.81035 -7.33211 -0.231714 -1.10064 14.6062 26.4759 2.46162 -21.2107 0.0 0.0 0.0 0.0 0.0 
3179.86 747.393 -574.396 161.326 -65.2636 166.691 -4.01947 -0.159285 -1.88512 -4.0175 -0.0390294 -1.89143 -4.01332 0.488649 -1.82766 -4.01793 0.193926 -1.88187 1.85937 10.8986 0.839022 2.16279 18.4829 1.78969 -0.0 0.0 -0.0 8.59392 23.0971 14.8066 -9.78973 -17.6722 62.2715 2.37332 -49.609 1.09698 -69.3441 -6.46234 5.29589 1.70985 -4.35685 9.71694 -0.0 0.0 -0.0 7.11337 17.5492 -13.2103 -16.5964 13.1149 -62.0311 1.11612 28.937 -0.288002 83.1834 4.21036 8.77894 -5.20113 -28.8307 17.0488 0.0 0.0 0.0 4.17051 45.6142 -13.055 -3.08905 0.114804 0.460113 35.4336 17.4702 -4.53795 -23.6399 0.0 0.0 -0.0 0.0 -0.0 2.3088 8.43639 -7.12588 -8.12501 -0.248283 -1.22118 16.9172 26.7287 2.82622 -20.3055 0.0 0.0 0.0 0.0 0.0 
3187.46 745.7 -568.065 160.89 -64.5452 166.368 -3.97293 -0.172244 -1.83279 -3.97106 -0.0552899 -1.84003 -3.96654 0.457261 -1.78319 -3.97094 0.169951 -1.833 2.49962 10.4378 -0.255997 2.8405 18.4986 0.463226 -0.0 0.0 -0.0 8.43393 22.5198 14.6495 -11.125 -17.3711 62.2798 2.22612 -47.7912 0.986375 -69.5854 -6.49311 5.29834 1.62269 -3.44326 9.50144 -0.0 0.0 -0.0 7.10754 16.5889 -13.2635 -16.3535 13.9581 -62.4067 1.15503 29.7758 -0.307079 83.0786 4.19797 8.7737 -5.07659 -28.7971 16.3653 0.0 0.0 0.0 5.89974 45.5825 -14.5869 -5.89454 0.197426 0.882698 35.2373 19.6542 -4.55793 -23.6705 0.0 0.0 -0.0 0.0 -0.0 1.72462 8.32563 -7.37837 -8.87108 -0.262347 -1.3348 17.6895 27.2639 2.96191 -19.613 0.0 0.0 0.0 0.0 0.0 
3193.17 741.579 -566.402 161.05 -64.8227 166.321 -3.94771 -0.200791 -1.78702 -3.94594 -0.0866896 -1.79618 -3.94056 0.414114 -1.74995 -3.94481 0.132591 -1.79337 1.9134 10.1853 -0.588125 2.23749 18.4107 0.152366 -0.0 0.0 -0.0 8.39258 24.0178 14.3819 -11.8283 -17.1164 62.7141 2.13168 -46.5537 0.917113 -69.6279 -6.49855 5.29876 1.6604 -2.65441 10.0843 -0.0 0.0 -0.0 6.89568 16.0619 -12.8396 -16.0443 14.5581 -62.4033 1.16789 30.0499 -0.31349 83.2009 4.21243 8.77981 -4.90825 -28.8154 15.3996 0.0 0.0 0.0 7.0791 46.1295 -15.3828 -8.41374 0.253901 1.26513 35.5585 21.4482 -4.62906 -23.6364 0.0 0.0 -0.0 0.0 -0.0 1.28104 7.98534 -6.71768 -9.38997 -0.271255 -1.41393 20.3334 27.2164 3.35302 -18.8308 0.0 0.0 0.0 0.0 0.0 
3201.36 738.19 -565.91 161.023 -65.0665 165.754 -3.81054 -0.117712 -1.77046 -3.8088 -0.00483239 -1.77436 -3.80625 0.482757 -1.70745 -3.81026 0.207083 -1.76224 1.50931 10.6925 -0.0192657 1.82647 18.886 0.870741 -0.0 0.0 -0.0 8.41096 23.8552 14.4313 -13.3768 -16.7716 62.7706 2.0035 -44.7786 0.825414 -69.7159 -6.50977 5.29962 1.63408 -1.23421 10.485 -0.0 0.0 -0.0 6.97175 16.7085 -12.961 -15.9407 16.4544 -62.1877 1.19471 30.617 -0.327038 83.154 4.20688 8.77747 -4.88064 -28.8384 15.2275 0.0 0.0 0.0 8.11904 48.0546 -15.8161 -10.1443 0.282926 1.52909 39.0546 22.3792 -4.99926 -23.7854 0.0 0.0 -0.0 0.0 -0.0 0.921157 7.31119 -5.98961 -9.98952 -0.280656 -1.50545 22.3761 26.9947 3.63629 -18.2996 0.0 0.0 0.0 0.0 0.0 
3205.68 735.551 -562.931 161.132 -64.951 165.155 -3.73593 -0.214008 -1.60574 -3.7345 -0.111411 -1.6161 -3.72923 0.334614 -1.58501 -3.73272 0.0801266 -1.61795 0.985858 10.8504 0.546893 1.27346 18.7708 1.57306 -0.0 0.0 -0.0 8.40654 24.191 14.3775 -13.9069 -16.1286 62.5302 1.76252 -41.1206 0.66114 -69.6648 -6.50325 5.29912 1.51874 0.76797 10.5068 -0.0 0.0 -0.0 6.92682 16.8147 -12.8564 -13.9806 15.7709 -62.0509 1.25313 31.8292 -0.357323 84.1953 4.33043 8.82835 -4.64292 -28.7877 13.9297 0.0 0.0 0.0 8.11197 46.9074 -15.7655 -11.5087 0.300182 1.73772 38.052 23.5429 -4.93365 -23.4823 0.0 0.0 -0.0 0.0 -0.0 0.978506 6.98854 -5.74187 -10.3383 -0.285683 -1.55873 23.8021 26.4614 3.81099 -17.5118 0.0 0.0 0.0 0.0 0.0 
3208.67 735.421 -559.965 161.996 -64.1105 165.876 -3.60307 -0.300484 -1.62299 -3.60162 -0.196614 -1.63882 -3.59374 0.254979 -1.63076 -3.59745 -0.00573216 -1.65055 0.325021 11.3763 1.46342 0.591291 19.0544 2.70065 -0.0 0.0 -0.0 7.94931 24.1951 13.7212 -15.4244 -15.3503 63.2157 1.6663 -39.5343 0.598863 -69.2357 -6.44851 5.29474 1.47073 1.87399 10.6213 -0.0 0.0 -0.0 6.94185 16.3968 -12.9172 -10.3149 15.2436 -61.2911 1.40187 34.7759 -0.439014 84.0039 4.30766 8.81917 -4.32917 -28.0623 12.6682 0.0 0.0 0.0 8.28223 47.1407 -16.1074 -13.953 0.318655 2.11228 40.2537 24.252 -5.16825 -23.4822 0.0 0.0 -0.0 0.0 -0.0 0.751787 5.32316 -5.70703 -10.4591 -0.287348 -1.57718 23.7103 26.9116 3.81811 -17.1806 0.0 0.0 0.0 0.0 0.0 
